<svg preserveAspectRatio="none" overflow="visible" style="display: block;" width="32" height="32" viewBox="0 0 32 32" fill="none" xmlns="http://www.w3.org/2000/svg">
<g id="visual-aid-glyph">
<path id="Vector" d="M4 1H28C31 1 31 1 31 4V28C31 31 31 31 28 31H4C1 31 1 31 1 28V4C1 1 1 1 4 1Z" stroke="#8A8A93" stroke-width="1.5" stroke-linecap="round" stroke-linejoin="round"/>
<path id="Vector_2" d="M17 12C17 14.7614 14.7614 17 12 17C9.23858 17 7 14.7614 7 12C7 9.23858 9.23858 7 12 7C14.7614 7 17 9.23858 17 12Z" stroke="#8A8A93" stroke-width="1.5" stroke-linecap="round" stroke-linejoin="round"/>
<path id="Vector_3" d="M8 25L18 13L28 25" stroke="#8A8A93" stroke-width="1.5" stroke-linecap="round" stroke-linejoin="round"/>
</g>
</svg>
